<svg xmlns="http://www.w3.org/2000/svg" id="fab53ecb-c04a-44eb-8d92-23f87bdb6c81" data-name="Layer 1" width="942.54724" height="631.43903" viewBox="0 0 942.54724 631.43903">

















<path d="M560.20614,676.255l-14.5923-6.1443-10.01026-73.15138H402.299L391.4486,669.81186l-13.05511,6.52746a3.10016,3.10016,0,0,0,1.38657,5.873H559.00349A3.1,3.1,0,0,0,560.20614,676.255Z" transform="translate(-128.72638 -134.28048)" fill="#e6e6e6"/><path d="M797.09757,606.69181H142.26837a12.97344,12.97344,0,0,1-12.9443-12.97332V501.379h680.7178v92.33952A12.97357,12.97357,0,0,1,797.09757,606.69181Z" transform="translate(-128.72638 -134.28048)" fill="#ccc"/><path d="M810.72638,545.02084h-682V149.91957A15.65719,15.65719,0,0,1,144.366,134.28048H795.08655a15.65736,15.65736,0,0,1,15.63983,15.63909Z" transform="translate(-128.72638 -134.28048)" fill="#3f3d56"/><path d="M769.99322,516.34435H169.45954a12.07024,12.07024,0,0,1-12.057-12.05667v-329.274a12.07088,12.07088,0,0,1,12.057-12.05741H769.99322a12.07088,12.07088,0,0,1,12.057,12.05741v329.274A12.07024,12.07024,0,0,1,769.99322,516.34435Z" transform="translate(-128.72638 -134.28048)" fill="#fff"/><path d="M638.14638,682.97542l-337.44822,0a1.56681,1.56681,0,0,1-1.53908-1.13363,1.52911,1.52911,0,0,1,1.47725-1.91893l337.385,0a1.61535,1.61535,0,0,1,1.61617,1.19368A1.52819,1.52819,0,0,1,638.14638,682.97542Z" transform="translate(-128.72638 -134.28048)" fill="#ccc"/><rect x="489.85973" y="81.90943" width="144.99594" height="110.7733" fill="#f2f2f2"/><rect x="497.0645" y="87.41369" width="130.58641" height="99.76477" fill="#fff"/><path d="M693.37738,295.69477q.02592.00028.05185-.00109a34.81675,34.81675,0,0,0,.779-69.48892.79424.79424,0,0,0-.60112.20836.78592.78592,0,0,0-.25678.57553l-.7612,67.902a.79707.79707,0,0,0,.78826.80412Z" transform="translate(-128.72638 -134.28048)" fill="#3f3d56"/><path d="M666.072,237.43291a1.02524,1.02524,0,0,1,.71962.30735l23.37584,23.90588a1.01418,1.01418,0,0,1,.29094.72511l-.36424,32.49143a1.01059,1.01059,0,0,1-.33018.73985,1.026,1.026,0,0,1-.77126.26782,35.04446,35.04446,0,0,1-23.69951-58.09062,1.02636,1.02636,0,0,1,.74091-.34658Q666.05306,237.4327,666.072,237.43291Z" transform="translate(-128.72638 -134.28048)" fill="#e6e6e6"/><path d="M689.84193,225.9272a1.02931,1.02931,0,0,1,.69948.28585,1.01135,1.01135,0,0,1,.31394.74786l-.32864,29.31578a1.02077,1.02077,0,0,1-1.75041.70223L668.378,236.11808a1.02291,1.02291,0,0,1,.05493-1.48163,35.11806,35.11806,0,0,1,21.34564-8.708C689.79961,225.92739,689.82088,225.927,689.84193,225.9272Z" transform="translate(-128.72638 -134.28048)" fill="#6c63ff"/><path d="M679.33353,309.77539a6.25343,6.25343,0,1,1-6.18294-6.32313A6.26054,6.26054,0,0,1,679.33353,309.77539Z" transform="translate(-128.72638 -134.28048)" fill="#6c63ff"/><path d="M697.19935,309.97567a6.25343,6.25343,0,1,1-6.18294-6.32313A6.26056,6.26056,0,0,1,697.19935,309.97567Z" transform="translate(-128.72638 -134.28048)" fill="#3f3d56"/><path d="M715.06516,310.176a6.25343,6.25343,0,1,1-6.18294-6.32314A6.26054,6.26054,0,0,1,715.06516,310.176Z" transform="translate(-128.72638 -134.28048)" fill="#e6e6e6"/><rect x="488.33346" y="210.11637" width="144.99594" height="110.7733" fill="#f2f2f2"/><rect x="495.53823" y="215.62063" width="130.58641" height="99.76477" fill="#fff"/><circle cx="517.69473" cy="242.98812" r="5.42203" fill="#3f3d56"/><path d="M733.53881,373.0493a3.67713,3.67713,0,1,1,0,7.35425H676.51323a3.67712,3.67712,0,1,1,0-7.35425h57.02558m0-.9006H676.51323a4.57773,4.57773,0,1,0,0,9.15545h57.02558a4.57773,4.57773,0,1,0,0-9.15545Z" transform="translate(-128.72638 -134.28048)" fill="#3f3d56"/><path d="M711.03754,381.30414h-42.9283a4.57772,4.57772,0,1,1,0-9.15544h42.9283a4.57772,4.57772,0,0,1,0,9.15544Z" transform="translate(-128.72638 -134.28048)" fill="#6c63ff"/><circle cx="517.69473" cy="265.50302" r="5.42203" fill="#3f3d56"/><path d="M733.53881,395.5642a3.67713,3.67713,0,1,1,0,7.35425H676.51323a3.67712,3.67712,0,1,1,0-7.35425h57.02558m0-.9006H676.51323a4.57772,4.57772,0,1,0,0,9.15545h57.02558a4.57772,4.57772,0,1,0,0-9.15545Z" transform="translate(-128.72638 -134.28048)" fill="#3f3d56"/><path d="M727.24826,403.819h-59.139a4.57772,4.57772,0,1,1,0-9.15544h59.139a4.57772,4.57772,0,0,1,0,9.15544Z" transform="translate(-128.72638 -134.28048)" fill="#6c63ff"/><circle cx="517.69473" cy="288.01792" r="5.42203" fill="#3f3d56"/><path d="M733.53881,418.0791a3.67713,3.67713,0,1,1,0,7.35425H676.51323a3.67712,3.67712,0,1,1,0-7.35425h57.02558m0-.9006H676.51323a4.57772,4.57772,0,1,0,0,9.15545h57.02558a4.57772,4.57772,0,1,0,0-9.15545Z" transform="translate(-128.72638 -134.28048)" fill="#3f3d56"/><path d="M692.125,426.33393H668.10924a4.57772,4.57772,0,1,1,0-9.15543H692.125a4.57772,4.57772,0,0,1,0,9.15543Z" transform="translate(-128.72638 -134.28048)" fill="#6c63ff"/><rect x="51.18842" y="101.50782" width="405.09331" height="207.61032" fill="#f2f2f2"/><rect x="64.69153" y="111.82386" width="378.08709" height="186.97824" fill="#fff"/><path d="M524.61425,404.55724H248.996a.8626.8626,0,0,1-.86256-.86256V271.59086a.86256.86256,0,1,1,1.72512,0V402.83212H524.61425a.86256.86256,0,0,1,0,1.72512Z" transform="translate(-128.72638 -134.28048)" fill="#3f3d56"/><path d="M307.88363,395.06909H282.81508a2.56336,2.56336,0,0,1-2.56051-2.5603V357.95166a2.56337,2.56337,0,0,1,2.56051-2.5603h25.06855a2.56337,2.56337,0,0,1,2.56051,2.5603v34.55713A2.56336,2.56336,0,0,1,307.88363,395.06909Z" transform="translate(-128.72638 -134.28048)" fill="#6c63ff"/><path d="M353.59927,395.06909H328.53072a2.56336,2.56336,0,0,1-2.56051-2.5603V325.17441a2.56336,2.56336,0,0,1,2.56051-2.5603h25.06855a2.56336,2.56336,0,0,1,2.56051,2.5603v67.33438A2.56336,2.56336,0,0,1,353.59927,395.06909Z" transform="translate(-128.72638 -134.28048)" fill="#6c63ff"/><path d="M399.31491,395.06909H374.24636a2.56337,2.56337,0,0,1-2.56051-2.5603V357.95166a2.56337,2.56337,0,0,1,2.56051-2.5603h25.06855a2.56337,2.56337,0,0,1,2.56052,2.5603v34.55713A2.56337,2.56337,0,0,1,399.31491,395.06909Z" transform="translate(-128.72638 -134.28048)" fill="#6c63ff"/><path d="M445.03056,395.06909H419.962a2.50734,2.50734,0,0,1-2.56052-2.44431V312.12a2.50734,2.50734,0,0,1,2.56052-2.44431h25.06855a2.50734,2.50734,0,0,1,2.56051,2.44431v80.50475A2.50734,2.50734,0,0,1,445.03056,395.06909Z" transform="translate(-128.72638 -134.28048)" fill="#6c63ff"/><path d="M490.7462,395.06909H465.67765a2.56336,2.56336,0,0,1-2.56051-2.5603V288.94692a2.56336,2.56336,0,0,1,2.56051-2.5603H490.7462a2.56336,2.56336,0,0,1,2.56051,2.5603V392.50879A2.56336,2.56336,0,0,1,490.7462,395.06909Z" transform="translate(-128.72638 -134.28048)" fill="#6c63ff"/><circle cx="166.62298" cy="205.58481" r="5.17536" fill="#3f3d56"/><circle cx="212.33862" cy="171.945" r="5.17536" fill="#3f3d56"/><circle cx="258.05426" cy="205.58481" r="5.17536" fill="#3f3d56"/><circle cx="303.7699" cy="155.55637" r="5.17536" fill="#3f3d56"/><circle cx="349.48555" cy="136.58007" r="5.17536" fill="#3f3d56"/><polygon points="258.163 206.744 212.339 172.421 167.14 206.275 166.106 204.895 212.339 170.265 257.945 204.425 303.266 154.83 303.447 154.756 349.163 136.337 349.808 137.937 304.274 156.283 258.163 206.744" fill="#3f3d56"/></svg>